<svg width="14" height="8" viewBox="0 0 14 8" fill="none" xmlns="http://www.w3.org/2000/svg">
<path d="M12.9037 0.627691L12.9067 0.630691L12.9067 0.630726C13.0327 0.76288 13.1029 0.938455 13.1029 1.12104C13.1029 1.3036 13.0327 1.47916 12.9067 1.61131L12.9037 0.627691ZM12.9037 0.627691L12.8988 0.622776C12.8367 0.557924 12.7622 0.506241 12.6797 0.470823C12.5965 0.435081 12.5068 0.41665 12.4162 0.41665C12.3256 0.41665 12.236 0.435081 12.1527 0.470823C12.0695 0.506554 11.9944 0.55884 11.932 0.6245C11.932 0.624517 11.932 0.624535 11.932 0.624552L6.73132 6.08314M12.9037 0.627691L6.73132 6.08314M6.73132 6.08314L1.53277 0.624553L6.73132 6.08314ZM7.24683 7.55152L12.9067 1.61135L6.2179 7.55152C6.28426 7.62118 6.36408 7.67663 6.45251 7.71452L6.52248 7.55123L6.45251 7.71452C6.54095 7.75241 6.63615 7.77195 6.73236 7.77195C6.82857 7.77195 6.92378 7.75241 7.01222 7.71452C7.10065 7.67663 7.18047 7.62118 7.24683 7.55152C7.24683 7.55152 7.24683 7.55152 7.24683 7.55152ZM0.558045 1.61135L6.21789 7.55152L1.53262 0.624393C1.47025 0.558781 1.39519 0.506534 1.31201 0.470823C1.22875 0.435081 1.1391 0.41665 1.0485 0.41665C0.957899 0.41665 0.868247 0.435081 0.784995 0.470823C0.702493 0.506243 0.627982 0.557929 0.565915 0.622786L0.561018 0.627682L0.560982 0.627646L0.558045 0.630726C0.432066 0.762879 0.361786 0.938454 0.361786 1.12104C0.361786 1.3036 0.432055 1.47916 0.558015 1.61131C0.558025 1.61132 0.558035 1.61133 0.558045 1.61135Z" fill="#4D96FF" stroke="#4D96FF" stroke-width="0.355297"/>
</svg>
