<svg width="32" height="32" viewBox="0 0 32 32" fill="none" xmlns="http://www.w3.org/2000/svg">
<path d="M29 26H28V16.5C28 16.3674 27.9473 16.2402 27.8536 16.1464C27.7598 16.0527 27.6326 16 27.5 16H23V7.5C23 7.36739 22.9473 7.24021 22.8536 7.14645C22.7598 7.05268 22.6326 7 22.5 7H16.5V4.5C16.5 4.36739 16.4473 4.24021 16.3536 4.14645C16.2598 4.05268 16.1326 4 16 4C15.8674 4 15.7402 4.05268 15.6464 4.14645C15.5527 4.24021 15.5 4.36739 15.5 4.5V7H9.5C9.36739 7 9.24021 7.05268 9.14645 7.14645C9.05268 7.24021 9 7.36739 9 7.5V16H4.5C4.36739 16 4.24021 16.0527 4.14645 16.1464C4.05268 16.2402 4 16.3674 4 16.5V26H3C2.86739 26 2.74021 26.0527 2.64645 26.1464C2.55268 26.2402 2.5 26.3674 2.5 26.5C2.5 26.6326 2.55268 26.7598 2.64645 26.8536C2.74021 26.9473 2.86739 27 3 27H29C29.1326 27 29.2598 26.9473 29.3536 26.8536C29.4473 26.7598 29.5 26.6326 29.5 26.5C29.5 26.3674 29.4473 26.2402 29.3536 26.1464C29.2598 26.0527 29.1326 26 29 26ZM27 17V26H23V23H24.5C24.6326 23 24.7598 22.9473 24.8536 22.8536C24.9473 22.7598 25 22.6326 25 22.5C25 22.3674 24.9473 22.2402 24.8536 22.1464C24.7598 22.0527 24.6326 22 24.5 22H23V20H24.5C24.6326 20 24.7598 19.9473 24.8536 19.8536C24.9473 19.7598 25 19.6326 25 19.5C25 19.3674 24.9473 19.2402 24.8536 19.1464C24.7598 19.0527 24.6326 19 24.5 19H23V17H27ZM5 17H9V19H7.5C7.36739 19 7.24021 19.0527 7.14645 19.1464C7.05268 19.2402 7 19.3674 7 19.5C7 19.6326 7.05268 19.7598 7.14645 19.8536C7.24021 19.9473 7.36739 20 7.5 20H9V22H7.5C7.36739 22 7.24021 22.0527 7.14645 22.1464C7.05268 22.2402 7 22.3674 7 22.5C7 22.6326 7.05268 22.7598 7.14645 22.8536C7.24021 22.9473 7.36739 23 7.5 23H9V26H5V17ZM10 8H22V26H19V19.5C19 19.3674 18.9473 19.2402 18.8536 19.1464C18.7598 19.0527 18.6326 19 18.5 19H13.5C13.3674 19 13.2402 19.0527 13.1464 19.1464C13.0527 19.2402 13 19.3674 13 19.5V26H10V8ZM14 26V20H18V26H14Z" fill="#2981FF"/>
<path d="M14.5 17C14.6326 17 14.7598 16.9473 14.8536 16.8536C14.9473 16.7598 15 16.6326 15 16.5C15 16.3674 14.9473 16.2402 14.8536 16.1464C14.7598 16.0527 14.6326 16 14.5 16H12.5C12.3674 16 12.2402 16.0527 12.1464 16.1464C12.0527 16.2402 12 16.3674 12 16.5C12 16.6326 12.0527 16.7598 12.1464 16.8536C12.2402 16.9473 12.3674 17 12.5 17H14.5ZM17.5 17H19.5C19.6326 17 19.7598 16.9473 19.8536 16.8536C19.9473 16.7598 20 16.6326 20 16.5C20 16.3674 19.9473 16.2402 19.8536 16.1464C19.7598 16.0527 19.6326 16 19.5 16H17.5C17.3674 16 17.2402 16.0527 17.1464 16.1464C17.0527 16.2402 17 16.3674 17 16.5C17 16.6326 17.0527 16.7598 17.1464 16.8536C17.2402 16.9473 17.3674 17 17.5 17ZM12.5 14H14.5C14.6326 14 14.7598 13.9473 14.8536 13.8536C14.9473 13.7598 15 13.6326 15 13.5C15 13.3674 14.9473 13.2402 14.8536 13.1464C14.7598 13.0527 14.6326 13 14.5 13H12.5C12.3674 13 12.2402 13.0527 12.1464 13.1464C12.0527 13.2402 12 13.3674 12 13.5C12 13.6326 12.0527 13.7598 12.1464 13.8536C12.2402 13.9473 12.3674 14 12.5 14ZM17.5 14H19.5C19.6326 14 19.7598 13.9473 19.8536 13.8536C19.9473 13.7598 20 13.6326 20 13.5C20 13.3674 19.9473 13.2402 19.8536 13.1464C19.7598 13.0527 19.6326 13 19.5 13H17.5C17.3674 13 17.2402 13.0527 17.1464 13.1464C17.0527 13.2402 17 13.3674 17 13.5C17 13.6326 17.0527 13.7598 17.1464 13.8536C17.2402 13.9473 17.3674 14 17.5 14ZM12.5 11H14.5C14.6326 11 14.7598 10.9473 14.8536 10.8536C14.9473 10.7598 15 10.6326 15 10.5C15 10.3674 14.9473 10.2402 14.8536 10.1464C14.7598 10.0527 14.6326 10 14.5 10H12.5C12.3674 10 12.2402 10.0527 12.1464 10.1464C12.0527 10.2402 12 10.3674 12 10.5C12 10.6326 12.0527 10.7598 12.1464 10.8536C12.2402 10.9473 12.3674 11 12.5 11ZM17.5 11H19.5C19.6326 11 19.7598 10.9473 19.8536 10.8536C19.9473 10.7598 20 10.6326 20 10.5C20 10.3674 19.9473 10.2402 19.8536 10.1464C19.7598 10.0527 19.6326 10 19.5 10H17.5C17.3674 10 17.2402 10.0527 17.1464 10.1464C17.0527 10.2402 17 10.3674 17 10.5C17 10.6326 17.0527 10.7598 17.1464 10.8536C17.2402 10.9473 17.3674 11 17.5 11Z" fill="#2981FF"/>
</svg>
