<svg width="20" height="20" viewBox="0 0 20 20" fill="none" xmlns="http://www.w3.org/2000/svg">
<path d="M18.4134 2.74133C17.3781 1.61844 15.9575 1 14.413 1C13.2585 1 12.2013 1.365 11.2704 2.08477C10.8008 2.44805 10.3752 2.89258 10 3.41133C9.62492 2.8927 9.19922 2.44805 8.72941 2.08477C7.79875 1.365 6.74148 1 5.58699 1C4.0425 1 2.62176 1.61844 1.58645 2.74133C0.563516 3.85109 0 5.36723 0 7.01059C0 8.70199 0.630351 10.2504 1.98363 11.8833C3.19426 13.3441 4.93422 14.8269 6.94914 16.544C7.63719 17.1304 8.41707 17.795 9.22684 18.503C9.4408 18.6904 9.71557 18.7937 10 18.7936C10.2846 18.7936 10.5592 18.6904 10.7729 18.5034C11.5826 17.7952 12.363 17.1302 13.0513 16.5435C15.0659 14.8267 16.8059 13.3441 18.0165 11.8832C19.3698 10.2504 20 8.70203 20 7.01043C20 5.36723 19.4365 3.85109 18.4134 2.74133Z" fill="#EF5648"/>
</svg>
