<svg width="24" height="22" viewBox="0 0 24 22" fill="none" xmlns="http://www.w3.org/2000/svg">
<path d="M7.11111 6.88235H16.8889M7.11111 11.5882H14.4444M19.3333 1C20.3058 1 21.2384 1.37185 21.9261 2.03374C22.6137 2.69563 23 3.59335 23 4.52941V13.9412C23 14.8772 22.6137 15.775 21.9261 16.4368C21.2384 17.0987 20.3058 17.4706 19.3333 17.4706H13.2222L7.11111 21V17.4706H4.66667C3.69421 17.4706 2.76158 17.0987 2.07394 16.4368C1.38631 15.775 1 14.8772 1 13.9412V4.52941C1 3.59335 1.38631 2.69563 2.07394 2.03374C2.76158 1.37185 3.69421 1 4.66667 1H19.3333Z" stroke="black" stroke-width="1.5" stroke-linecap="round" stroke-linejoin="round"/>
</svg>
