<svg width="20" height="20" viewBox="0 0 20 20" fill="none" xmlns="http://www.w3.org/2000/svg">
<path d="M15.4 1C16.3548 1 17.2705 1.39926 17.9456 2.10994C18.6207 2.82062 19 3.78451 19 4.78956V12.3687C19 13.3737 18.6207 14.3376 17.9456 15.0483C17.2705 15.759 16.3548 16.1583 15.4 16.1583H11.1484L6.8626 18.8649C6.73353 18.9465 6.58709 18.9926 6.4367 18.9992C6.2863 19.0057 6.13674 18.9725 6.00171 18.9024C5.86668 18.8324 5.7505 18.7278 5.66379 18.5983C5.57709 18.4688 5.52263 18.3184 5.5054 18.161L5.5 18.053V16.1583H4.6C3.67638 16.1583 2.78809 15.7846 2.11887 15.1145C1.44964 14.4444 1.05068 13.5292 1.0045 12.5582L1 12.3687V4.78956C1 3.78451 1.37928 2.82062 2.05442 2.10994C2.72955 1.39926 3.64522 1 4.6 1H15.4ZM11.8 9.52652H6.4C6.1613 9.52652 5.93239 9.62633 5.7636 9.804C5.59482 9.98167 5.5 10.2226 5.5 10.4739C5.5 10.7252 5.59482 10.9661 5.7636 11.1438C5.93239 11.3215 6.1613 11.4213 6.4 11.4213H11.8C12.0387 11.4213 12.2676 11.3215 12.4364 11.1438C12.6052 10.9661 12.7 10.7252 12.7 10.4739C12.7 10.2226 12.6052 9.98167 12.4364 9.804C12.2676 9.62633 12.0387 9.52652 11.8 9.52652ZM13.6 5.73695H6.4C6.1613 5.73695 5.93239 5.83677 5.7636 6.01444C5.59482 6.19211 5.5 6.43308 5.5 6.68434C5.5 6.93561 5.59482 7.17658 5.7636 7.35425C5.93239 7.53192 6.1613 7.63174 6.4 7.63174H13.6C13.8387 7.63174 14.0676 7.53192 14.2364 7.35425C14.4052 7.17658 14.5 6.93561 14.5 6.68434C14.5 6.43308 14.4052 6.19211 14.2364 6.01444C14.0676 5.83677 13.8387 5.73695 13.6 5.73695Z" fill="#1A1A1A"/>
</svg>
