<svg width="32" height="32" viewBox="0 0 32 32" fill="none" xmlns="http://www.w3.org/2000/svg">
<path d="M8.85588 5.11111H16.8559C17.5892 5.11111 18.1892 4.41111 18.1892 3.55556C18.1892 2.7 17.5892 2 16.8559 2H8.85588C7.38921 2 6.18921 3.4 6.18921 5.11111V26.8889C6.18921 28.6 7.38921 30 8.85588 30H16.8559C17.5892 30 18.1892 29.3 18.1892 28.4444C18.1892 27.5889 17.5892 26.8889 16.8559 26.8889H8.85588V5.11111Z" fill="#2981FF"/>
<path d="M28.7481 15.5747L25.9087 12.1842C25.8379 12.0973 25.747 12.0377 25.6477 12.0129C25.5484 11.9881 25.4451 11.9992 25.3511 12.0449C25.2571 12.0906 25.1767 12.1687 25.1201 12.2693C25.0635 12.3699 25.0333 12.4883 25.0335 12.6095V14.7848H17.9095C17.3498 14.7848 16.8918 15.3316 16.8918 16C16.8918 16.6684 17.3498 17.2152 17.9095 17.2152H25.0335V19.3905C25.0335 19.9374 25.583 20.2047 25.8985 19.8159L28.7379 16.4253C28.9414 16.1944 28.9414 15.8056 28.7481 15.5747Z" fill="#2981FF"/>
</svg>
