<svg width="32" height="32" viewBox="0 0 32 32" fill="none" xmlns="http://www.w3.org/2000/svg">
<g clip-path="url(#clip0_2269_842)">
<path d="M12.0007 0.99997C9.95444 0.999575 7.94203 1.5345 6.15482 2.5539C4.36762 3.5733 2.86499 5.04329 1.78979 6.82415C0.714581 8.605 0.102526 10.6375 0.0118004 12.7286C-0.0789255 14.8196 0.354693 16.8996 1.27144 18.7709L0.0609246 23.3922C-0.0144121 23.681 -0.0141776 23.985 0.0616048 24.2737C0.137387 24.5624 0.286053 24.8256 0.492688 25.037C0.699323 25.2483 0.956663 25.4004 1.23889 25.4779C1.52112 25.5554 1.81832 25.5557 2.10067 25.4786L6.61609 24.2431C8.2344 25.0733 10.0154 25.5181 11.8256 25.5442C13.6359 25.5703 15.4284 25.1771 17.069 24.394C18.7095 23.6109 20.1556 22.4582 21.2987 21.0222C22.4419 19.5863 23.2526 17.9044 23.67 16.1025C24.0875 14.3006 24.1009 12.4254 23.7092 10.6175C23.3175 8.80955 22.5309 7.11571 21.4083 5.66287C20.2858 4.21004 18.8563 3.03587 17.2271 2.22835C15.5979 1.42082 13.8112 1.00088 12.0007 0.99997ZM12.0007 20.7727C11.6472 20.7727 11.3081 20.629 11.0581 20.3733C10.808 20.1176 10.6676 19.7707 10.6676 19.4091C10.6676 19.0474 10.808 18.7006 11.0581 18.4448C11.3081 18.1891 11.6472 18.0454 12.0007 18.0454C12.3543 18.0454 12.6934 18.1891 12.9434 18.4448C13.1934 18.7006 13.3339 19.0474 13.3339 19.4091C13.3339 19.7707 13.1934 20.1176 12.9434 20.3733C12.6934 20.629 12.3543 20.7727 12.0007 20.7727ZM10.001 9.53088C9.99994 9.80212 9.89357 10.0618 9.70531 10.2529C9.51705 10.4439 9.26231 10.5506 8.99712 10.5495C8.73194 10.5484 8.47804 10.4396 8.29128 10.2471C8.10452 10.0545 8.00019 9.79394 8.00125 9.52269V9.49679C8.00256 9.43897 8.00568 9.38122 8.01058 9.3236C8.0562 8.73838 8.22444 8.17006 8.50385 7.65724C9.05312 6.66179 10.1316 5.7727 12.0007 5.7727C13.8698 5.7727 14.9497 6.66179 15.4963 7.65724C15.7977 8.20851 15.9701 8.82366 16.0002 9.45451L16.0016 9.52269V9.52406C16.0016 11.0568 15.079 12.0877 14.4111 12.835L14.2445 13.0218C13.5165 13.8481 13.0019 14.5354 13.0019 15.6604C13.0019 15.9317 12.8966 16.1918 12.7091 16.3836C12.5216 16.5754 12.2673 16.6831 12.0021 16.6831C11.7369 16.6831 11.4826 16.5754 11.2951 16.3836C11.1075 16.1918 11.0022 15.9317 11.0022 15.6604C11.0022 13.7172 11.9874 12.5295 12.7593 11.6527L12.7833 11.6254C13.5952 10.7022 13.9992 10.2441 14.0018 9.53224V9.52815C13.9836 9.22434 13.8994 8.92851 13.7552 8.66224C13.5512 8.2927 13.1299 7.81815 12.0007 7.81815C10.8716 7.81815 10.4503 8.2927 10.2476 8.66088C10.1029 8.92838 10.0186 9.22567 10.001 9.53088ZM19.9997 31C18.3033 31.0018 16.6259 30.6349 15.0787 29.9235C13.5314 29.2121 12.1496 28.1725 11.0249 26.8736C11.9627 26.9442 12.9051 26.9131 13.8365 26.7809C15.5943 28.1922 17.7651 28.9578 19.9997 28.9545C21.6722 28.9573 23.3183 28.5286 24.7858 27.7081C25.0119 27.5818 25.2769 27.5495 25.5257 27.6181L29.8585 28.8045L28.696 24.37C28.6296 24.1164 28.6611 23.8464 28.7839 23.6159C29.5815 22.1156 29.999 20.4349 29.9985 18.7272C29.9989 16.9115 29.5269 15.1284 28.6307 13.5611C27.7345 11.9938 26.4465 10.6988 24.8991 9.80906C24.6596 8.87821 24.3245 7.9759 23.8992 7.11724C25.5172 7.68628 26.9976 8.60254 28.2411 9.80461C29.4847 11.0067 30.4626 12.4668 31.1093 14.087C31.7561 15.7072 32.0568 17.4502 31.9912 19.199C31.9256 20.9478 31.4953 22.662 30.729 24.2268L31.9395 28.8468C32.015 29.1357 32.0148 29.4399 31.9389 29.7287C31.8631 30.0176 31.7143 30.2809 31.5075 30.4923C31.3007 30.7037 31.0431 30.8557 30.7607 30.9331C30.4783 31.0105 30.1809 31.0105 29.8985 30.9331L25.3844 29.6977C23.7132 30.5549 21.8693 31.0009 19.9997 31ZM14.0005 9.53088V9.5336V9.52679" fill="#4D96FF"/>
</g>
<defs>
<clipPath id="clip0_2269_842">
<rect width="32" height="32" fill="white"/>
</clipPath>
</defs>
</svg>
