<svg width="32" height="32" viewBox="0 0 32 32" fill="none" xmlns="http://www.w3.org/2000/svg">
<path d="M14.818 13.048C14.1594 12.9027 13.4712 12.98 12.8612 13.2677C12.2512 13.5554 11.7538 14.0374 11.447 14.638C11.235 15.056 11.123 15.528 11.123 16.001C11.123 16.2397 11.2179 16.4686 11.3867 16.6374C11.5554 16.8062 11.7844 16.901 12.023 16.901C12.2617 16.901 12.4907 16.8062 12.6594 16.6374C12.8282 16.4686 12.923 16.2397 12.923 16.001C12.923 15.806 12.966 15.621 13.053 15.45C13.1784 15.2037 13.3826 15.0065 13.633 14.8898C13.8835 14.773 14.1659 14.7436 14.435 14.806C14.877 14.902 15.242 15.263 15.341 15.702C15.4075 15.972 15.3807 16.2565 15.2648 16.5093C15.149 16.762 14.951 16.9681 14.703 17.094C13.806 17.552 13.248 18.441 13.248 19.414C13.248 19.6527 13.3429 19.8816 13.5117 20.0504C13.6804 20.2192 13.9094 20.314 14.148 20.314C14.3867 20.314 14.6157 20.2192 14.7844 20.0504C14.9532 19.8816 15.048 19.6527 15.048 19.414C15.048 19.121 15.229 18.847 15.52 18.698C16.1231 18.3887 16.6056 17.8869 16.8911 17.2723C17.1766 16.6577 17.2487 15.9653 17.096 15.305C16.9695 14.7515 16.6882 14.2453 16.2848 13.8457C15.8815 13.446 15.3727 13.1694 14.818 13.048ZM14.49 21.16C14.326 21.0926 14.1458 21.0747 13.9716 21.1084C13.7975 21.1422 13.637 21.2262 13.51 21.35C13.34 21.52 13.25 21.75 13.25 21.99C13.25 22.23 13.34 22.46 13.51 22.63C13.68 22.79 13.91 22.89 14.15 22.89C14.26 22.89 14.38 22.87 14.491 22.82C14.6 22.78 14.701 22.71 14.781 22.63C14.951 22.46 15.051 22.23 15.051 21.99C15.051 21.75 14.951 21.52 14.781 21.35C14.6986 21.2667 14.5994 21.202 14.49 21.16Z" fill="#2981FF"/>
<path d="M25.9512 4.85001H23.7012V2.81001C23.7012 2.15501 23.3332 1.56801 22.7422 1.27801C22.4539 1.1349 22.1309 1.07642 21.8108 1.10933C21.4906 1.14225 21.1863 1.26523 20.9332 1.46401L16.6392 4.85001H9.75118C7.54918 4.85001 5.76018 6.58201 5.63418 8.75201C3.54818 8.96301 1.90918 10.709 1.90918 12.85V23.015C1.91024 24.1127 2.34676 25.1651 3.12293 25.9413C3.8991 26.7174 4.95151 27.154 6.04918 27.155H8.30018V29.189C8.30018 29.85 8.66918 30.439 9.26418 30.727C9.55268 30.8676 9.875 30.924 10.1941 30.8897C10.5132 30.8554 10.8162 30.7318 11.0682 30.533L15.3612 27.156H22.2512C24.4532 27.156 26.2432 25.421 26.3672 23.249C28.4522 23.037 30.0922 21.292 30.0922 19.151V8.99001C30.0903 7.89241 29.6534 6.84031 28.8772 6.06428C28.101 5.28825 27.0488 4.8516 25.9512 4.85001ZM24.5892 23.015C24.5887 23.6353 24.3421 24.23 23.9036 24.6687C23.4651 25.1074 22.8704 25.3542 22.2502 25.355H15.0492C14.8473 25.3553 14.6513 25.4229 14.4922 25.547L10.1002 29.002V26.254C10.1002 26.0153 10.0054 25.7864 9.83658 25.6176C9.66779 25.4488 9.43887 25.354 9.20018 25.354H6.04918C5.42891 25.3532 4.83429 25.1064 4.39578 24.6677C3.95728 24.229 3.71071 23.6343 3.71018 23.014V12.85C3.71018 11.56 4.75918 10.51 6.04918 10.51H22.2502C23.5402 10.51 24.5892 11.56 24.5892 12.85V23.015ZM28.2902 19.15C28.2902 20.29 27.4702 21.239 26.3902 21.446V12.85C26.3891 11.7523 25.9526 10.6999 25.1764 9.92376C24.4003 9.14759 23.3479 8.71107 22.2502 8.71001H7.43918C7.50657 8.14357 7.7789 7.62136 8.20481 7.24188C8.63071 6.8624 9.18075 6.65188 9.75118 6.65001H16.9512C17.1535 6.64979 17.3499 6.58185 17.5092 6.45701L21.9002 2.99301V5.75001C21.9002 5.98871 21.995 6.21762 22.1638 6.38641C22.3326 6.55519 22.5615 6.65001 22.8002 6.65001H25.9502C27.2402 6.65001 28.2892 7.70001 28.2892 8.99001V19.15H28.2902Z" fill="#2981FF"/>
</svg>
