<svg width="27" height="19" viewBox="0 0 27 19" fill="none" xmlns="http://www.w3.org/2000/svg">
<path d="M21.3333 10.6667H5.33333C4.53333 10.6667 4 10.1333 4 9.33333C4 8.53333 4.53333 8 5.33333 8H21.3333C22.1333 8 22.6667 8.53333 22.6667 9.33333C22.6667 10.1333 22.1333 10.6667 21.3333 10.6667ZM17.3333 18.6667H9.33333C8.53333 18.6667 8 18.1333 8 17.3333C8 16.5333 8.53333 16 9.33333 16H17.3333C18.1333 16 18.6667 16.5333 18.6667 17.3333C18.6667 18.1333 18.1333 18.6667 17.3333 18.6667ZM25.3333 2.66667H1.33333C0.533333 2.66667 0 2.13333 0 1.33333C0 0.533333 0.533333 0 1.33333 0H25.3333C26.1333 0 26.6667 0.533333 26.6667 1.33333C26.6667 2.13333 26.1333 2.66667 25.3333 2.66667Z" fill="black"/>
</svg>
