<svg width="32" height="32" viewBox="0 0 32 32" fill="none" xmlns="http://www.w3.org/2000/svg">
<rect width="32" height="32" rx="16" fill="#4D96FF"/>
<path d="M22.6668 17.3333H9.86676C9.22676 17.3333 8.8001 16.9066 8.8001 16.2666C8.8001 15.6266 9.22676 15.1999 9.86676 15.1999H22.6668C23.3068 15.1999 23.7334 15.6266 23.7334 16.2666C23.7334 16.9066 23.3068 17.3333 22.6668 17.3333ZM19.4668 23.7333H13.0668C12.4268 23.7333 12.0001 23.3066 12.0001 22.6666C12.0001 22.0266 12.4268 21.5999 13.0668 21.5999H19.4668C20.1068 21.5999 20.5334 22.0266 20.5334 22.6666C20.5334 23.3066 20.1068 23.7333 19.4668 23.7333ZM25.8668 10.9333H6.66676C6.02676 10.9333 5.6001 10.5066 5.6001 9.86659C5.6001 9.22659 6.02676 8.79993 6.66676 8.79993H25.8668C26.5068 8.79993 26.9334 9.22659 26.9334 9.86659C26.9334 10.5066 26.5068 10.9333 25.8668 10.9333Z" fill="white"/>
</svg>