<svg width="710" height="1024" viewBox="0 0 710 1024" fill="none" xmlns="http://www.w3.org/2000/svg">
<g clip-path="url(#clip0_460_1268)">
<rect width="710" height="1024" fill="white"/>
<g filter="url(#filter0_f_460_1268)">
<ellipse cx="94.5" cy="931.5" rx="191.5" ry="130.5" fill="#F09350" fill-opacity="0.18"/>
</g>
<g filter="url(#filter1_f_460_1268)">
<ellipse cx="720" cy="833.5" rx="101" ry="130.5" fill="#F09350" fill-opacity="0.18"/>
</g>
<g filter="url(#filter2_f_460_1268)">
<ellipse cx="318.5" cy="346.5" rx="191.5" ry="130.5" fill="#F09350" fill-opacity="0.18"/>
</g>
<g filter="url(#filter3_f_460_1268)">
<path d="M485.702 975.285C338.174 944.657 451.27 883.312 526.259 856.468C513.585 833.233 417.472 827.864 371 828.084C411.98 810.702 482.153 758.511 435.005 688.805C387.857 619.099 511.261 651.4 578.857 676.263C565.127 666.142 560.1 625.964 649.833 546.225C739.567 466.486 762 620.375 762 707.288C710.458 727.75 620.302 792.044 672.013 885.513C736.652 1002.35 670.112 1013.57 485.702 975.285Z" fill="#2981FF" fill-opacity="0.2"/>
</g>
<g filter="url(#filter4_f_460_1268)">
<path d="M753.667 311.548C711.203 524.35 626.155 361.214 588.938 253.045C556.724 271.328 549.281 409.966 549.586 477C525.487 417.888 453.128 316.667 356.487 384.676C259.847 452.685 304.628 274.679 339.099 177.175C325.067 196.981 269.364 204.232 158.813 74.7958C48.2619 -54.6408 261.616 -87 382.112 -87C410.482 -12.6532 459.352 18.5906 588.938 -56C750.921 -149.238 806.746 45.5446 753.667 311.548Z" fill="#2981FF" fill-opacity="0.2"/>
</g>
<g filter="url(#filter5_f_460_1268)">
<path d="M-95.0254 596.379C-197.448 444.22 -50.0584 491.995 36.4393 534.902C44.369 505.101 -34.2004 417.814 -74.4763 377.895C-25.0045 399.14 77.9181 417.312 93.8336 320.035C109.749 222.758 190 355.461 228.136 433.971C224.507 413.907 252.791 376.947 394.957 389.629C537.124 402.311 431.533 546.614 360.967 617.181C299.88 589.324 169.89 563.736 138.617 684.244C99.5264 834.878 33.0032 786.577 -95.0254 596.379Z" fill="#2981FF" fill-opacity="0.2"/>
</g>
<g filter="url(#filter6_f_460_1268)">
<path d="M-188.415 149.302C-247.966 -24.1811 -117.963 60.1132 -45.5183 123.946C-30.1457 97.2125 -83.4463 -7.43617 -112.018 -56.4188C-69.7306 -23.0932 24.9819 21.0973 65.5321 -68.7455C106.082 -158.588 149.253 -9.63724 165.769 76.0687C167.457 55.7483 204.343 27.3688 338.383 76.4139C472.423 125.459 333.082 237.516 246.656 287.414C194.861 244.696 75.9227 186.337 14.5258 294.644C-62.2204 430.029 -113.976 366.156 -188.415 149.302Z" fill="#F09350" fill-opacity="0.18"/>
</g>
<g filter="url(#filter7_f_460_1268)">
<path d="M-35.4147 726.302C-94.966 552.819 35.0365 637.113 107.482 700.946C122.854 674.212 69.5537 569.564 40.9819 520.581C83.2694 553.907 177.982 598.097 218.532 508.255C259.082 418.412 302.253 567.363 318.769 653.069C320.457 632.748 357.343 604.369 491.383 653.414C625.423 702.459 486.082 814.516 399.656 864.415C347.861 821.696 228.923 763.337 167.526 871.644C90.7796 1007.03 39.0243 943.156 -35.4147 726.302Z" fill="#E0EDFF"/>
</g>
<g filter="url(#filter8_f_460_1268)">
<path d="M385.961 820.578C205.945 785.41 343.947 714.971 435.45 684.148C419.985 657.469 302.706 651.304 246 651.557C296.005 631.597 381.631 571.669 324.1 491.63C267.293 412.599 365.489 349.94 447.375 375.859C446.348 374.847 447.404 374.747 450.5 376.894C449.461 376.535 448.42 376.19 447.375 375.859C451.906 380.326 496.975 402.555 586.237 327.914C695.732 236.354 710 484.598 710 584.394C647.108 607.89 631.901 671.069 695 778.394C773.873 912.55 610.982 864.539 385.961 820.578Z" fill="#F09350" fill-opacity="0.18"/>
</g>
<g filter="url(#filter9_f_460_1268)">
<path d="M626.578 1058.2C591.41 1238.21 520.971 1100.21 490.148 1008.71C463.469 1024.17 457.304 1141.45 457.556 1198.16C437.597 1148.15 377.669 1062.53 297.63 1120.06C218.599 1176.87 155.94 1078.67 181.859 996.784C180.847 997.811 180.747 996.755 182.894 993.659C182.535 994.698 182.19 995.739 181.859 996.784C186.326 992.253 208.555 947.184 133.914 857.922C42.3542 748.428 290.598 734.159 390.394 734.159C413.89 797.052 477.069 812.258 584.394 749.159C718.55 670.286 670.539 833.178 626.578 1058.2Z" fill="#2981FF" fill-opacity="0.2"/>
</g>
<g filter="url(#filter10_f_460_1268)">
<path d="M331.585 976.302C272.034 802.819 402.037 887.113 474.482 950.946C489.854 924.212 436.554 819.564 407.982 770.581C450.269 803.907 544.982 848.097 585.532 758.255C626.082 668.412 669.253 817.363 685.769 903.069C687.457 882.748 724.343 854.369 858.383 903.414C992.423 952.459 853.082 1064.52 766.656 1114.41C714.861 1071.7 595.923 1013.34 534.526 1121.64C457.78 1257.03 406.024 1193.16 331.585 976.302Z" fill="#F09350" fill-opacity="0.18"/>
</g>
<g filter="url(#filter11_f_460_1268)">
<path d="M114.5 135L297.664 395.25H-68.6644L114.5 135Z" fill="#E0EDFF"/>
</g>
<g filter="url(#filter12_f_460_1268)">
<path d="M371 346.5L750.5 163.336V529.664L371 346.5Z" fill="#2981FF" fill-opacity="0.2"/>
</g>
<g filter="url(#filter13_f_460_1268)">
<ellipse cx="126.5" cy="513.5" rx="191.5" ry="130.5" fill="#F09350" fill-opacity="0.18"/>
</g>
<g filter="url(#filter14_f_460_1268)">
<ellipse cx="570.5" cy="85.5" rx="191.5" ry="130.5" fill="#F09350" fill-opacity="0.18"/>
</g>
</g>
<defs>
<filter id="filter0_f_460_1268" x="-197" y="701" width="583" height="461" filterUnits="userSpaceOnUse" color-interpolation-filters="sRGB">
<feFlood flood-opacity="0" result="BackgroundImageFix"/>
<feBlend mode="normal" in="SourceGraphic" in2="BackgroundImageFix" result="shape"/>
<feGaussianBlur stdDeviation="50" result="effect1_foregroundBlur_460_1268"/>
</filter>
<filter id="filter1_f_460_1268" x="519" y="603" width="402" height="461" filterUnits="userSpaceOnUse" color-interpolation-filters="sRGB">
<feFlood flood-opacity="0" result="BackgroundImageFix"/>
<feBlend mode="normal" in="SourceGraphic" in2="BackgroundImageFix" result="shape"/>
<feGaussianBlur stdDeviation="50" result="effect1_foregroundBlur_460_1268"/>
</filter>
<filter id="filter2_f_460_1268" x="27" y="116" width="583" height="461" filterUnits="userSpaceOnUse" color-interpolation-filters="sRGB">
<feFlood flood-opacity="0" result="BackgroundImageFix"/>
<feBlend mode="normal" in="SourceGraphic" in2="BackgroundImageFix" result="shape"/>
<feGaussianBlur stdDeviation="50" result="effect1_foregroundBlur_460_1268"/>
</filter>
<filter id="filter3_f_460_1268" x="271" y="424" width="591" height="671" filterUnits="userSpaceOnUse" color-interpolation-filters="sRGB">
<feFlood flood-opacity="0" result="BackgroundImageFix"/>
<feBlend mode="normal" in="SourceGraphic" in2="BackgroundImageFix" result="shape"/>
<feGaussianBlur stdDeviation="50" result="effect1_foregroundBlur_460_1268"/>
</filter>
<filter id="filter4_f_460_1268" x="28" y="-187" width="845.11" height="764" filterUnits="userSpaceOnUse" color-interpolation-filters="sRGB">
<feFlood flood-opacity="0" result="BackgroundImageFix"/>
<feBlend mode="normal" in="SourceGraphic" in2="BackgroundImageFix" result="shape"/>
<feGaussianBlur stdDeviation="50" result="effect1_foregroundBlur_460_1268"/>
</filter>
<filter id="filter5_f_460_1268" x="-229.898" y="185.758" width="795.262" height="687.41" filterUnits="userSpaceOnUse" color-interpolation-filters="sRGB">
<feFlood flood-opacity="0" result="BackgroundImageFix"/>
<feBlend mode="normal" in="SourceGraphic" in2="BackgroundImageFix" result="shape"/>
<feGaussianBlur stdDeviation="50" result="effect1_foregroundBlur_460_1268"/>
</filter>
<filter id="filter6_f_460_1268" x="-303.591" y="-196.587" width="797.609" height="662.152" filterUnits="userSpaceOnUse" color-interpolation-filters="sRGB">
<feFlood flood-opacity="0" result="BackgroundImageFix"/>
<feBlend mode="normal" in="SourceGraphic" in2="BackgroundImageFix" result="shape"/>
<feGaussianBlur stdDeviation="50" result="effect1_foregroundBlur_460_1268"/>
</filter>
<filter id="filter7_f_460_1268" x="-150.591" y="380.413" width="797.609" height="662.152" filterUnits="userSpaceOnUse" color-interpolation-filters="sRGB">
<feFlood flood-opacity="0" result="BackgroundImageFix"/>
<feBlend mode="normal" in="SourceGraphic" in2="BackgroundImageFix" result="shape"/>
<feGaussianBlur stdDeviation="50" result="effect1_foregroundBlur_460_1268"/>
</filter>
<filter id="filter8_f_460_1268" x="146" y="208" width="669.159" height="758.298" filterUnits="userSpaceOnUse" color-interpolation-filters="sRGB">
<feFlood flood-opacity="0" result="BackgroundImageFix"/>
<feBlend mode="normal" in="SourceGraphic" in2="BackgroundImageFix" result="shape"/>
<feGaussianBlur stdDeviation="50" result="effect1_foregroundBlur_460_1268"/>
</filter>
<filter id="filter9_f_460_1268" x="14" y="629" width="758.298" height="669.159" filterUnits="userSpaceOnUse" color-interpolation-filters="sRGB">
<feFlood flood-opacity="0" result="BackgroundImageFix"/>
<feBlend mode="normal" in="SourceGraphic" in2="BackgroundImageFix" result="shape"/>
<feGaussianBlur stdDeviation="50" result="effect1_foregroundBlur_460_1268"/>
</filter>
<filter id="filter10_f_460_1268" x="216.409" y="630.413" width="797.609" height="662.152" filterUnits="userSpaceOnUse" color-interpolation-filters="sRGB">
<feFlood flood-opacity="0" result="BackgroundImageFix"/>
<feBlend mode="normal" in="SourceGraphic" in2="BackgroundImageFix" result="shape"/>
<feGaussianBlur stdDeviation="50" result="effect1_foregroundBlur_460_1268"/>
</filter>
<filter id="filter11_f_460_1268" x="-168.665" y="35" width="566.329" height="460.25" filterUnits="userSpaceOnUse" color-interpolation-filters="sRGB">
<feFlood flood-opacity="0" result="BackgroundImageFix"/>
<feBlend mode="normal" in="SourceGraphic" in2="BackgroundImageFix" result="shape"/>
<feGaussianBlur stdDeviation="50" result="effect1_foregroundBlur_460_1268"/>
</filter>
<filter id="filter12_f_460_1268" x="271" y="63.3356" width="579.5" height="566.329" filterUnits="userSpaceOnUse" color-interpolation-filters="sRGB">
<feFlood flood-opacity="0" result="BackgroundImageFix"/>
<feBlend mode="normal" in="SourceGraphic" in2="BackgroundImageFix" result="shape"/>
<feGaussianBlur stdDeviation="50" result="effect1_foregroundBlur_460_1268"/>
</filter>
<filter id="filter13_f_460_1268" x="-165" y="283" width="583" height="461" filterUnits="userSpaceOnUse" color-interpolation-filters="sRGB">
<feFlood flood-opacity="0" result="BackgroundImageFix"/>
<feBlend mode="normal" in="SourceGraphic" in2="BackgroundImageFix" result="shape"/>
<feGaussianBlur stdDeviation="50" result="effect1_foregroundBlur_460_1268"/>
</filter>
<filter id="filter14_f_460_1268" x="279" y="-145" width="583" height="461" filterUnits="userSpaceOnUse" color-interpolation-filters="sRGB">
<feFlood flood-opacity="0" result="BackgroundImageFix"/>
<feBlend mode="normal" in="SourceGraphic" in2="BackgroundImageFix" result="shape"/>
<feGaussianBlur stdDeviation="50" result="effect1_foregroundBlur_460_1268"/>
</filter>
<clipPath id="clip0_460_1268">
<rect width="710" height="1024" fill="white"/>
</clipPath>
</defs>
</svg>
