<svg width="20" height="18" viewBox="0 0 20 18" fill="none" xmlns="http://www.w3.org/2000/svg">
<path d="M18.4134 1.74133C17.3781 0.618438 15.9575 0 14.413 0C13.2585 0 12.2013 0.365 11.2704 1.08477C10.8008 1.44805 10.3752 1.89258 10 2.41133C9.62492 1.8927 9.19922 1.44805 8.72941 1.08477C7.79875 0.365 6.74148 0 5.58699 0C4.0425 0 2.62176 0.618438 1.58645 1.74133C0.563516 2.85109 0 4.36723 0 6.01059C0 7.70199 0.630351 9.25035 1.98363 10.8833C3.19426 12.3441 4.93422 13.8269 6.94914 15.544C7.63719 16.1304 8.41707 16.795 9.22684 17.503C9.4408 17.6904 9.71557 17.7937 10 17.7936C10.2846 17.7936 10.5592 17.6904 10.7729 17.5034C11.5826 16.7952 12.363 16.1302 13.0513 15.5435C15.0659 13.8267 16.8059 12.3441 18.0165 10.8832C19.3698 9.25039 20 7.70203 20 6.01043C20 4.36723 19.4365 2.85109 18.4134 1.74133Z" fill="#EF5648"/>
</svg>
