<svg width="32" height="32" viewBox="0 0 32 32" fill="none" xmlns="http://www.w3.org/2000/svg">
<path d="M16 1C19.9782 1 23.7936 2.58035 26.6066 5.3934C29.4196 8.20644 31 12.0218 31 16C31 19.9782 29.4196 23.7936 26.6066 26.6066C23.7936 29.4196 19.9782 31 16 31C12.0218 31 8.20644 29.4196 5.3934 26.6066C2.58035 23.7936 1 19.9782 1 16C1 12.0218 2.58035 8.20644 5.3934 5.3934C8.20644 2.58035 12.0218 1 16 1ZM16 12.25C16.2111 12.25 16.42 12.2084 16.615 12.1277C16.81 12.0469 16.9872 11.9285 17.1364 11.7793C17.2857 11.63 17.404 11.4529 17.4848 11.2579C17.5656 11.0629 17.6071 10.8539 17.6071 10.6429C17.6071 10.4318 17.5656 10.2228 17.4848 10.0278C17.404 9.83284 17.2857 9.65567 17.1364 9.50644C16.9872 9.3572 16.81 9.23882 16.615 9.15805C16.42 9.07728 16.2111 9.03571 16 9.03571C15.5743 9.03571 15.1661 9.20481 14.8651 9.50581C14.5641 9.8068 14.395 10.215 14.395 10.6407C14.395 11.0664 14.5641 11.4746 14.8651 11.7756C15.1661 12.0766 15.5743 12.2457 16 12.2457M17.0714 14.9243C17.0714 14.6401 16.9585 14.3676 16.7576 14.1667C16.5567 13.9657 16.2842 13.8529 16 13.8529C15.7158 13.8529 15.4433 13.9657 15.2424 14.1667C15.0415 14.3676 14.9286 14.6401 14.9286 14.9243V21.3529C14.9286 21.637 15.0415 21.9095 15.2424 22.1105C15.4433 22.3114 15.7158 22.4243 16 22.4243C16.2842 22.4243 16.5567 22.3114 16.7576 22.1105C16.9585 21.9095 17.0714 21.637 17.0714 21.3529V14.9243Z" fill="#4D96FF"/>
</svg>
