<svg width="32" height="32" viewBox="0 0 32 32" fill="none" xmlns="http://www.w3.org/2000/svg">
<path d="M16 0C7.15681 0 0 7.156 0 16C0 24.8431 7.156 32 16 32C24.8432 32 32 24.844 32 16C32 7.15694 24.844 0 16 0ZM16 29.7674C8.40862 29.7674 2.23256 23.5914 2.23256 16C2.23256 8.40856 8.40862 2.23256 16 2.23256C23.5914 2.23256 29.7674 8.40856 29.7674 16C29.7674 23.5914 23.5914 29.7674 16 29.7674Z" fill="#2981FF"/>
<path d="M16.0004 13.3373C15.0526 13.3373 14.3787 13.7375 14.3787 14.3272V22.3513C14.3787 22.8568 15.0526 23.3622 16.0004 23.3622C16.906 23.3622 17.6431 22.8568 17.6431 22.3513V14.3271C17.6431 13.7374 16.906 13.3373 16.0004 13.3373ZM16.0004 8.38794C15.0316 8.38794 14.2734 9.08294 14.2734 9.88325C14.2734 10.6836 15.0316 11.3997 16.0004 11.3997C16.9481 11.3997 17.7064 10.6836 17.7064 9.88325C17.7064 9.08294 16.9481 8.38794 16.0004 8.38794Z" fill="#2981FF"/>
</svg>
