<svg width="18" height="22" viewBox="0 0 18 22" fill="none" xmlns="http://www.w3.org/2000/svg">
<path d="M15.8085 7.79245H12.9149V5.33962C12.9149 4.18868 12.5024 3.08488 11.7682 2.27105C11.0341 1.45721 10.0383 1 9 1C7.96171 1 6.96594 1.45721 6.23175 2.27105C5.49757 3.08488 5.08511 4.18868 5.08511 5.33962V7.79245H2.19149C1.87549 7.79245 1.57243 7.9316 1.34898 8.17929C1.12553 8.42698 1 8.76292 1 9.11321V19.6792C1 20.0295 1.12553 20.3655 1.34898 20.6132C1.57243 20.8609 1.87549 21 2.19149 21H15.8085C16.1245 21 16.4276 20.8609 16.651 20.6132C16.8745 20.3655 17 20.0295 17 19.6792V9.11321C17 8.76292 16.8745 8.42698 16.651 8.17929C16.4276 7.9316 16.1245 7.79245 15.8085 7.79245ZM6.10638 5.33962C6.10638 4.48893 6.41124 3.67308 6.9539 3.07154C7.49656 2.47001 8.23256 2.13208 9 2.13208C9.76744 2.13208 10.5034 2.47001 11.0461 3.07154C11.5888 3.67308 11.8936 4.48893 11.8936 5.33962V7.79245H6.10638V5.33962ZM15.9787 19.6792C15.9787 19.7293 15.9608 19.7773 15.9289 19.8127C15.897 19.848 15.8537 19.8679 15.8085 19.8679H2.19149C2.14635 19.8679 2.10305 19.848 2.07113 19.8127C2.03921 19.7773 2.02128 19.7293 2.02128 19.6792V9.11321C2.02128 9.06317 2.03921 9.01518 2.07113 8.97979C2.10305 8.94441 2.14635 8.92453 2.19149 8.92453H15.8085C15.8537 8.92453 15.897 8.94441 15.9289 8.97979C15.9608 9.01518 15.9787 9.06317 15.9787 9.11321V19.6792ZM9.85107 14.3962C9.85107 14.5828 9.80115 14.7652 9.70763 14.9204C9.61412 15.0755 9.4812 15.1964 9.32569 15.2678C9.17018 15.3392 8.99906 15.3579 8.83397 15.3215C8.66888 15.2851 8.51723 15.1952 8.39821 15.0633C8.27918 14.9314 8.19813 14.7633 8.16529 14.5803C8.13245 14.3973 8.14931 14.2076 8.21372 14.0352C8.27814 13.8628 8.38722 13.7155 8.52717 13.6118C8.66713 13.5082 8.83168 13.4528 9 13.4528C9.22572 13.4528 9.44219 13.5522 9.60179 13.7291C9.7614 13.9061 9.85107 14.146 9.85107 14.3962Z" fill="#2981FF" stroke="#2981FF" stroke-width="0.5"/>
</svg>
