<svg width="20" height="18" viewBox="0 0 20 18" fill="none" xmlns="http://www.w3.org/2000/svg">
<path d="M9.99998 17.7936C9.71521 17.7936 9.44076 17.6904 9.22682 17.503C8.41885 16.7965 7.63991 16.1326 6.95264 15.547L6.94913 15.544C4.93421 13.8269 3.19425 12.344 1.98363 10.8833C0.63035 9.25037 0 7.70202 0 6.01057C0 4.36722 0.563515 2.85109 1.5866 1.74132C2.62191 0.618436 4.04249 0 5.58714 0C6.74163 0 7.79889 0.364999 8.72955 1.08476C9.1992 1.44804 9.6249 1.89269 9.99998 2.41132C10.3752 1.89269 10.8008 1.44804 11.2706 1.08476C12.2012 0.364999 13.2585 0 14.413 0C15.9575 0 17.3782 0.618436 18.4135 1.74132C19.4366 2.85109 20 4.36722 20 6.01057C20 7.70198 19.3698 9.25033 18.0165 10.8831C16.8058 12.344 15.066 13.8267 13.0514 15.5436C12.3629 16.1302 11.5828 16.7952 10.773 17.5033C10.559 17.6905 10.2843 17.7936 9.99998 17.7936ZM5.58714 1.17156C4.37362 1.17156 3.25882 1.6559 2.44781 2.53539C1.62476 3.4282 1.1714 4.66233 1.1714 6.01057C1.1714 7.43315 1.70011 8.70541 2.88558 10.1358C4.03136 11.5184 5.73561 12.9707 7.70889 14.6524L7.71252 14.6554C8.40237 15.2433 9.1844 15.9099 9.9983 16.6215C10.8171 15.9085 11.6003 15.2409 12.2915 14.6521C14.2647 12.9704 15.9688 11.5184 17.1145 10.1358C18.2998 8.70541 18.8286 7.43315 18.8286 6.01057C18.8286 4.6623 18.3752 3.42816 17.5522 2.53539C16.7413 1.6559 15.6264 1.17156 14.413 1.17156C13.524 1.17156 12.7078 1.45418 11.9871 2.0114C11.3449 2.50824 10.8975 3.13628 10.6352 3.57574C10.5003 3.80171 10.2629 3.93659 9.99998 3.93659C9.73705 3.93659 9.49963 3.80171 9.36475 3.57574C9.10264 3.13628 8.65522 2.50824 8.0128 2.0114C7.29217 1.45418 6.47596 1.17156 5.58714 1.17156Z" fill="#EB2614"/>
</svg>
