<svg width="20" height="18" viewBox="0 0 20 18" fill="none" xmlns="http://www.w3.org/2000/svg">
<path d="M9.99998 17.7936C9.71521 17.7936 9.44076 17.6904 9.22682 17.503C8.41885 16.7965 7.63991 16.1326 6.95264 15.547L6.94913 15.544C4.93421 13.8269 3.19425 12.3441 1.98363 10.8833C0.63035 9.25039 0 7.70203 0 6.01059C0 4.36723 0.563515 2.8511 1.5866 1.74134C2.62191 0.618451 4.04249 1.52588e-05 5.58714 1.52588e-05C6.74163 1.52588e-05 7.79889 0.365015 8.72955 1.08478C9.1992 1.44806 9.6249 1.89271 9.99998 2.41134C10.3752 1.89271 10.8008 1.44806 11.2706 1.08478C12.2012 0.365015 13.2585 1.52588e-05 14.413 1.52588e-05C15.9575 1.52588e-05 17.3782 0.618451 18.4135 1.74134C19.4366 2.8511 20 4.36723 20 6.01059C20 7.70199 19.3698 9.25035 18.0165 10.8832C16.8058 12.3441 15.066 13.8267 13.0514 15.5437C12.3629 16.1302 11.5828 16.7952 10.773 17.5033C10.559 17.6905 10.2843 17.7937 9.99998 17.7936ZM5.58714 1.17158C4.37362 1.17158 3.25882 1.65591 2.44781 2.5354C1.62476 3.42821 1.1714 4.66235 1.1714 6.01059C1.1714 7.43316 1.70011 8.70543 2.88558 10.1358C4.03136 11.5184 5.73561 12.9707 7.70889 14.6524L7.71252 14.6555C8.40237 15.2433 9.1844 15.9099 9.9983 16.6215C10.8171 15.9085 11.6003 15.2409 12.2915 14.6521C14.2647 12.9704 15.9688 11.5184 17.1145 10.1358C18.2998 8.70543 18.8286 7.43316 18.8286 6.01059C18.8286 4.66231 18.3752 3.42817 17.5522 2.5354C16.7413 1.65591 15.6264 1.17158 14.413 1.17158C13.524 1.17158 12.7078 1.45419 11.9871 2.01142C11.3449 2.50825 10.8975 3.1363 10.6352 3.57575C10.5003 3.80173 10.2629 3.93661 9.99998 3.93661C9.73705 3.93661 9.49963 3.80173 9.36475 3.57575C9.10264 3.1363 8.65522 2.50825 8.0128 2.01142C7.29217 1.45419 6.47596 1.17158 5.58714 1.17158Z" fill="black"/>
</svg>
