<svg width="18" height="20" viewBox="0 0 18 20" fill="none" xmlns="http://www.w3.org/2000/svg">
<path d="M8.50936 19.8093C8.64746 19.9349 8.82365 20 8.99984 20C9.17603 20 9.35222 19.9349 9.49031 19.8093C9.80936 19.5116 17.3332 12.4977 17.3332 8.13953C17.3332 3.65116 13.5951 0 8.99984 0C4.4046 0 0.666504 3.65116 0.666504 8.13953C0.666504 12.4977 8.19031 19.5116 8.50936 19.8093ZM8.99984 1.39535C12.8094 1.39535 15.9046 4.4186 15.9046 8.13953C15.9046 11.0372 11.3046 16.093 8.99984 18.3302C6.69508 16.093 2.09508 11.0419 2.09508 8.13953C2.09508 4.4186 5.19031 1.39535 8.99984 1.39535Z" fill="#1A1A1A"/>
<path d="M12.5711 8.13953C12.5711 6.21394 10.9711 4.65115 8.99965 4.65115C7.02822 4.65115 5.42822 6.21394 5.42822 8.13953C5.42822 10.0651 7.02822 11.6279 8.99965 11.6279C10.9711 11.6279 12.5711 10.0651 12.5711 8.13953ZM6.85679 8.13953C6.85679 6.98604 7.8187 6.0465 8.99965 6.0465C10.1806 6.0465 11.1425 6.98604 11.1425 8.13953C11.1425 9.29301 10.1806 10.2325 8.99965 10.2325C7.8187 10.2325 6.85679 9.29301 6.85679 8.13953Z" fill="#1A1A1A"/>
</svg>
