<svg width="31" height="32" viewBox="0 0 31 32" fill="none" xmlns="http://www.w3.org/2000/svg">
<path d="M7.85563 5.11111H15.8556C16.589 5.11111 17.189 4.41111 17.189 3.55556C17.189 2.7 16.589 2 15.8556 2H7.85563C6.38896 2 5.18896 3.4 5.18896 5.11111V26.8889C5.18896 28.6 6.38896 30 7.85563 30H15.8556C16.589 30 17.189 29.3 17.189 28.4444C17.189 27.5889 16.589 26.8889 15.8556 26.8889H7.85563V5.11111Z" fill="#F09350"/>
<path d="M27.7483 15.5747L24.9089 12.1842C24.8381 12.0973 24.7473 12.0377 24.648 12.0129C24.5486 11.9881 24.4454 11.9992 24.3514 12.0449C24.2574 12.0906 24.1769 12.1687 24.1204 12.2693C24.0638 12.3699 24.0336 12.4883 24.0337 12.6095V14.7848H16.9098C16.3501 14.7848 15.8921 15.3316 15.8921 16C15.8921 16.6684 16.3501 17.2152 16.9098 17.2152H24.0337V19.3905C24.0337 19.9374 24.5833 20.2047 24.8988 19.8159L27.7381 16.4253C27.9417 16.1944 27.9417 15.8056 27.7483 15.5747Z" fill="#F09350"/>
</svg>
