<svg width="32" height="32" viewBox="0 0 32 32" fill="none" xmlns="http://www.w3.org/2000/svg">
<path fill-rule="evenodd" clip-rule="evenodd" d="M5.56267 4.22935C4 5.79069 4 8.30535 4 13.3334V18.6667C4 23.6947 4 26.2094 5.56267 27.7707C7.124 29.3334 9.63867 29.3334 14.6667 29.3334H17.3333C22.3613 29.3334 24.876 29.3334 26.4373 27.7707C28 26.2094 28 23.6947 28 18.6667V13.3334C28 8.30535 28 5.79069 26.4373 4.22935C24.876 2.66669 22.3613 2.66669 17.3333 2.66669H14.6667C9.63867 2.66669 7.124 2.66669 5.56267 4.22935ZM10.6667 12.3334C10.4015 12.3334 10.1471 12.4387 9.95956 12.6262C9.77202 12.8138 9.66667 13.0681 9.66667 13.3334C9.66667 13.5986 9.77202 13.8529 9.95956 14.0405C10.1471 14.228 10.4015 14.3334 10.6667 14.3334H21.3333C21.5986 14.3334 21.8529 14.228 22.0404 14.0405C22.228 13.8529 22.3333 13.5986 22.3333 13.3334C22.3333 13.0681 22.228 12.8138 22.0404 12.6262C21.8529 12.4387 21.5986 12.3334 21.3333 12.3334H10.6667ZM10.6667 17.6667C10.4015 17.6667 10.1471 17.772 9.95956 17.9596C9.77202 18.1471 9.66667 18.4015 9.66667 18.6667C9.66667 18.9319 9.77202 19.1863 9.95956 19.3738C10.1471 19.5613 10.4015 19.6667 10.6667 19.6667H17.3333C17.5985 19.6667 17.8529 19.5613 18.0404 19.3738C18.228 19.1863 18.3333 18.9319 18.3333 18.6667C18.3333 18.4015 18.228 18.1471 18.0404 17.9596C17.8529 17.772 17.5985 17.6667 17.3333 17.6667H10.6667Z" fill="#4D96FF"/>
</svg>
