<svg width="32" height="32" viewBox="0 0 32 32" fill="none" xmlns="http://www.w3.org/2000/svg">
<path d="M4 13.3334C4 8.30541 4 5.79075 5.56267 4.22941C7.124 2.66675 9.63867 2.66675 14.6667 2.66675H17.3333C22.3613 2.66675 24.876 2.66675 26.4373 4.22941C28 5.79075 28 8.30541 28 13.3334V18.6667C28 23.6947 28 26.2094 26.4373 27.7707C24.876 29.3334 22.3613 29.3334 17.3333 29.3334H14.6667C9.63867 29.3334 7.124 29.3334 5.56267 27.7707C4 26.2094 4 23.6947 4 18.6667V13.3334Z" stroke="#2981FF" stroke-width="1.5"/>
<path d="M10.6667 13.3335H21.3334M10.6667 18.6668H17.3334" stroke="#2981FF" stroke-width="1.5" stroke-linecap="round"/>
</svg>
