<svg width="24" height="24" viewBox="0 0 24 24" fill="none" xmlns="http://www.w3.org/2000/svg">
<rect width="24" height="24" rx="12" fill="#E0EDFF"/>
<g clip-path="url(#clip0_2009_6532)">
<path d="M12 6C10.2553 6 8.83594 7.4194 8.83594 9.16406C8.83594 10.9087 10.2553 12.3281 12 12.3281C13.7447 12.3281 15.1641 10.9087 15.1641 9.16406C15.1641 7.4194 13.7447 6 12 6ZM12 11.625C10.643 11.625 9.53906 10.521 9.53906 9.16406C9.53906 7.8071 10.643 6.70312 12 6.70312C13.357 6.70312 14.4609 7.8071 14.4609 9.16406C14.4609 10.521 13.357 11.625 12 11.625ZM15.9367 14.3952C15.0705 13.5156 13.9221 13.0312 12.7031 13.0312H11.2969C10.0779 13.0312 8.92955 13.5156 8.0633 14.3952C7.20129 15.2704 6.72656 16.4258 6.72656 17.6484C6.72656 17.8426 6.88397 18 7.07812 18H16.9219C17.116 18 17.2734 17.8426 17.2734 17.6484C17.2734 16.4258 16.7987 15.2704 15.9367 14.3952ZM7.44516 17.2969C7.62129 15.3027 9.28151 13.7344 11.2969 13.7344H12.7031C14.7185 13.7344 16.3787 15.3027 16.5548 17.2969H7.44516Z" fill="#2981FF"/>
</g>
<defs>
<clipPath id="clip0_2009_6532">
<rect width="12" height="12" fill="white" transform="translate(6 6)"/>
</clipPath>
</defs>
</svg>
