<svg width="32" height="32" viewBox="0 0 32 32" fill="none" xmlns="http://www.w3.org/2000/svg">
<path d="M19.667 24H11.667C11.667 25.0609 12.0884 26.0783 12.8386 26.8284C13.5887 27.5786 14.6061 28 15.667 28C16.7279 28 17.7453 27.5786 18.4954 26.8284C19.2456 26.0783 19.667 25.0609 19.667 24Z" stroke="#014CC6" stroke-width="1.5" stroke-linecap="round" stroke-linejoin="round"/>
<path d="M25.5069 19.1731C26.0367 19.7038 26.3341 20.4232 26.3338 21.1731C26.3338 21.5444 26.2606 21.9119 26.1186 22.2549C25.9765 22.5979 25.7683 22.9095 25.5058 23.172C25.2433 23.4345 24.9317 23.6428 24.5887 23.7848C24.2457 23.9269 23.8781 24 23.5069 24H7.82688C7.45563 24.0001 7.08799 23.927 6.74498 23.785C6.40197 23.643 6.0903 23.4347 5.82779 23.1722C5.56527 22.9097 5.35705 22.598 5.21501 22.255C5.07298 21.912 4.99992 21.5444 5 21.1731C4.99963 20.4232 5.29705 19.7038 5.82688 19.1731L7.66688 17.3331V12C7.66688 9.87827 8.50974 7.84344 10.01 6.34315C11.5103 4.84285 13.5451 4 15.6669 4C17.7886 4 19.8234 4.84285 21.3237 6.34315C22.824 7.84344 23.6669 9.87827 23.6669 12V17.3331L25.5069 19.1731Z" stroke="#4D96FF" stroke-width="1.5" stroke-linecap="round" stroke-linejoin="round"/>
</svg>
