<svg width="12" height="12" viewBox="0 0 12 12" fill="none" xmlns="http://www.w3.org/2000/svg">
<g clip-path="url(#clip0_3090_126)">
<path d="M15 6C15 6.19891 14.921 6.38968 14.7803 6.53033C14.6397 6.67098 14.4489 6.75 14.25 6.75H6.75V14.25C6.75 14.4489 6.67098 14.6397 6.53033 14.7803C6.38968 14.921 6.19891 15 6 15C5.80109 15 5.61032 14.921 5.46967 14.7803C5.32902 14.6397 5.25 14.4489 5.25 14.25V6.75H-2.25C-2.44891 6.75 -2.63968 6.67098 -2.78033 6.53033C-2.92098 6.38968 -3 6.19891 -3 6C-3 5.80109 -2.92098 5.61032 -2.78033 5.46967C-2.63968 5.32902 -2.44891 5.25 -2.25 5.25H5.25V-2.25C5.25 -2.44891 5.32902 -2.63968 5.46967 -2.78033C5.61032 -2.92098 5.80109 -3 6 -3C6.19891 -3 6.38968 -2.92098 6.53033 -2.78033C6.67098 -2.63968 6.75 -2.44891 6.75 -2.25V5.25H14.25C14.4489 5.25 14.6397 5.32902 14.7803 5.46967C14.921 5.61032 15 5.80109 15 6Z" fill="white"/>
</g>
<defs>
<clipPath id="clip0_3090_126">
<rect width="12" height="12" fill="white"/>
</clipPath>
</defs>
</svg>
