<svg width="32" height="32" viewBox="0 0 32 32" fill="none" xmlns="http://www.w3.org/2000/svg">
<path d="M30.0153 4.78516C25.3588 4.78516 19.2322 3.21385 17.0483 0.302671C16.7578 -0.0510788 16.2356 -0.102079 15.8818 0.188483C15.84 0.222689 15.8017 0.26096 15.7675 0.302733C13.5835 3.2136 7.45686 4.78516 2.80062 4.78516C2.35837 4.78516 2 5.14347 2 5.5856V15.9912C2 24.7929 9.6433 30.099 16.1882 31.9687C16.3318 32.0104 16.4841 32.0104 16.6277 31.9687C23.1726 30.099 30.8159 24.7929 30.8159 15.9912V5.5856C30.8159 5.14347 30.4574 4.7851 30.0153 4.7851V4.78516ZM29.2148 15.9911C29.2148 23.8049 22.3673 28.5949 16.408 30.3664C10.4484 28.5949 3.60075 23.8049 3.60075 15.9912V6.37203C8.22755 6.2156 13.6987 4.7241 16.4079 1.99923C19.1175 4.7241 24.5883 6.2156 29.215 6.37185V15.9912L29.2148 15.9911Z" fill="#2981FF"/>
<path d="M13.2065 12.7895V14.3903H12.406C11.9638 14.3903 11.6055 14.7487 11.6055 15.1909V21.5942C11.6055 22.0363 11.9638 22.3947 12.406 22.3947H20.4103C20.8525 22.3947 21.211 22.0363 21.211 21.5942V15.1909C21.211 14.7487 20.8525 14.3903 20.4103 14.3903H19.6098V12.7895C19.6098 11.0212 18.1765 9.58783 16.4082 9.58783C14.6398 9.58783 13.2065 11.0212 13.2065 12.7895ZM19.6098 20.7939H13.2065V15.9912H19.6098L19.6098 20.7939ZM18.009 12.7895V14.3903H14.8073V12.7895C14.8073 11.9055 15.5239 11.1887 16.4082 11.1887C17.2922 11.1887 18.009 11.9055 18.009 12.7895Z" fill="#2981FF"/>
</svg>
