<svg width="32" height="32" viewBox="0 0 32 32" fill="none" xmlns="http://www.w3.org/2000/svg">
<path d="M10.6667 11.9999H21.3333M10.6667 17.3333H18.6667M24 5.33325C25.0609 5.33325 26.0783 5.75468 26.8284 6.50482C27.5786 7.25497 28 8.27239 28 9.33325V19.9999C28 21.0608 27.5786 22.0782 26.8284 22.8283C26.0783 23.5785 25.0609 23.9999 24 23.9999H17.3333L10.6667 27.9999V23.9999H8C6.93913 23.9999 5.92172 23.5785 5.17157 22.8283C4.42143 22.0782 4 21.0608 4 19.9999V9.33325C4 8.27239 4.42143 7.25497 5.17157 6.50482C5.92172 5.75468 6.93913 5.33325 8 5.33325H24Z" stroke="#2981FF" stroke-width="1.5" stroke-linecap="round" stroke-linejoin="round"/>
</svg>
