<svg width="32" height="32" viewBox="0 0 32 32" fill="none" xmlns="http://www.w3.org/2000/svg">
<path d="M24.0001 4C25.4146 4 26.7711 4.5619 27.7713 5.5621C28.7715 6.56229 29.3334 7.91885 29.3334 9.33333V20C29.3334 21.4145 28.7715 22.771 27.7713 23.7712C26.7711 24.7714 25.4146 25.3333 24.0001 25.3333H17.7014L11.3521 29.1427C11.1609 29.2574 10.9439 29.3224 10.7211 29.3316C10.4983 29.3408 10.2767 29.294 10.0767 29.1954C9.87665 29.0969 9.70453 28.9497 9.57607 28.7674C9.44762 28.5851 9.36694 28.3735 9.34141 28.152L9.33341 28V25.3333H8.00008C6.63176 25.3333 5.31578 24.8074 4.32433 23.8644C3.33289 22.9213 2.74183 21.6333 2.67341 20.2667L2.66675 20V9.33333C2.66675 7.91885 3.22865 6.56229 4.22885 5.5621C5.22904 4.5619 6.58559 4 8.00008 4H24.0001ZM18.6667 16H10.6667C10.3131 16 9.97399 16.1405 9.72394 16.3905C9.47389 16.6406 9.33341 16.9797 9.33341 17.3333C9.33341 17.687 9.47389 18.0261 9.72394 18.2761C9.97399 18.5262 10.3131 18.6667 10.6667 18.6667H18.6667C19.0204 18.6667 19.3595 18.5262 19.6096 18.2761C19.8596 18.0261 20.0001 17.687 20.0001 17.3333C20.0001 16.9797 19.8596 16.6406 19.6096 16.3905C19.3595 16.1405 19.0204 16 18.6667 16ZM21.3334 10.6667H10.6667C10.3131 10.6667 9.97399 10.8071 9.72394 11.0572C9.47389 11.3072 9.33341 11.6464 9.33341 12C9.33341 12.3536 9.47389 12.6928 9.72394 12.9428C9.97399 13.1929 10.3131 13.3333 10.6667 13.3333H21.3334C21.687 13.3333 22.0262 13.1929 22.2762 12.9428C22.5263 12.6928 22.6667 12.3536 22.6667 12C22.6667 11.6464 22.5263 11.3072 22.2762 11.0572C22.0262 10.8071 21.687 10.6667 21.3334 10.6667Z" fill="#4D96FF"/>
</svg>
