<svg width="296" height="1024" viewBox="0 0 296 1024" fill="none" xmlns="http://www.w3.org/2000/svg">
<g clip-path="url(#clip0_1858_3569)">
<g clip-path="url(#clip1_1858_3569)">
<rect width="710" height="1145" transform="translate(-9 -92)" fill="white"/>
<g filter="url(#filter0_f_1858_3569)">
<ellipse cx="85.5" cy="839.5" rx="191.5" ry="130.5" fill="#F09350" fill-opacity="0.18"/>
</g>
<g filter="url(#filter1_f_1858_3569)">
<ellipse cx="309.5" cy="254.5" rx="191.5" ry="130.5" fill="#2981FF" fill-opacity="0.28"/>
</g>
<g filter="url(#filter2_f_1858_3569)">
<path d="M476.702 883.285C329.174 852.657 442.27 791.312 517.259 764.468C504.585 741.233 408.472 735.864 362 736.084C402.98 718.702 473.153 666.511 426.005 596.805C378.857 527.099 502.261 559.4 569.857 584.263C556.127 574.142 551.1 533.964 640.833 454.225C730.567 374.486 753 528.375 753 615.288C701.458 635.75 611.302 700.044 663.013 793.513C727.652 910.349 661.112 921.57 476.702 883.285Z" fill="#2981FF" fill-opacity="0.2"/>
</g>
<g filter="url(#filter3_f_1858_3569)">
<path d="M744.667 219.548C702.203 432.35 617.155 269.214 579.938 161.045C547.724 179.328 540.281 317.966 540.586 385C516.487 325.888 444.128 224.667 347.487 292.676C250.847 360.685 295.628 182.679 330.099 85.175C316.067 104.981 260.364 112.232 149.813 -17.2042C39.2619 -146.641 252.616 -179 373.112 -179C401.482 -104.653 450.352 -73.4094 579.938 -148C741.921 -241.238 797.746 -46.4554 744.667 219.548Z" fill="#2981FF" fill-opacity="0.2"/>
</g>
<g filter="url(#filter4_f_1858_3569)">
<path d="M-104.025 504.379C-206.448 352.22 -59.0584 399.995 27.4393 442.902C35.369 413.101 -43.2004 325.814 -83.4763 285.895C-34.0045 307.14 68.9181 325.312 84.8336 228.035C100.749 130.758 181 263.461 219.136 341.971C215.507 321.907 243.791 284.947 385.957 297.629C528.124 310.311 422.533 454.614 351.967 525.181C290.88 497.324 160.89 471.736 129.617 592.244C90.5264 742.878 24.0032 694.577 -104.025 504.379Z" fill="#2981FF" fill-opacity="0.2"/>
</g>
<g filter="url(#filter5_f_1858_3569)">
<path d="M-197.415 57.302C-256.966 -116.181 -126.963 -31.8868 -54.5183 31.9457C-39.1457 5.21249 -92.4463 -99.4361 -121.018 -148.419C-78.7306 -115.093 15.9819 -70.9027 56.5321 -160.745C97.0824 -250.588 140.253 -101.637 156.769 -15.9313C158.457 -36.2517 195.343 -64.6312 329.383 -15.586C463.423 33.4591 324.082 145.516 237.656 195.415C185.861 152.696 66.9227 94.3368 5.52577 202.644C-71.2204 338.029 -122.976 274.156 -197.415 57.302Z" fill="#2981FF" fill-opacity="0.28"/>
</g>
<g filter="url(#filter6_f_1858_3569)">
<path d="M-44.4147 634.302C-103.966 460.819 26.0365 545.113 98.4817 608.946C113.854 582.212 60.5537 477.564 31.9819 428.581C74.2694 461.907 168.982 506.097 209.532 416.255C250.082 326.412 293.253 475.363 309.769 561.069C311.457 540.748 348.343 512.369 482.383 561.414C616.423 610.459 477.082 722.516 390.656 772.415C338.861 729.696 219.923 671.337 158.526 779.644C81.7796 915.029 30.0243 851.156 -44.4147 634.302Z" fill="#E0EDFF"/>
</g>
<g filter="url(#filter7_f_1858_3569)">
<path d="M376.961 728.578C196.945 693.41 334.947 622.971 426.45 592.148C410.985 565.469 293.706 559.304 237 559.557C287.005 539.597 372.631 479.669 315.1 399.63C258.293 320.599 356.489 257.94 438.375 283.859C437.348 282.847 438.404 282.747 441.5 284.894C440.461 284.535 439.42 284.19 438.375 283.859C442.906 288.326 487.975 310.555 577.237 235.914C686.732 144.354 701 392.598 701 492.394C638.108 515.89 622.901 579.069 686 686.394C764.873 820.55 601.982 772.539 376.961 728.578Z" fill="#F09350" fill-opacity="0.18"/>
</g>
<g filter="url(#filter8_f_1858_3569)">
<path d="M617.578 966.198C582.41 1146.21 511.971 1008.21 481.148 916.709C454.469 932.174 448.304 1049.45 448.556 1106.16C428.597 1056.15 368.669 970.528 288.63 1028.06C209.599 1084.87 146.94 986.671 172.859 904.784C171.847 905.811 171.747 904.755 173.894 901.659C173.535 902.698 173.19 903.739 172.859 904.784C177.326 900.253 199.555 855.184 124.914 765.922C33.3542 656.428 281.598 642.159 381.394 642.159C404.89 705.052 468.069 720.258 575.394 657.159C709.55 578.286 661.539 741.178 617.578 966.198Z" fill="#2981FF" fill-opacity="0.2"/>
</g>
<g filter="url(#filter9_f_1858_3569)">
<path d="M322.585 884.302C263.034 710.819 393.037 795.113 465.482 858.946C480.854 832.212 427.554 727.564 398.982 678.581C441.269 711.907 535.982 756.097 576.532 666.255C617.082 576.412 660.253 725.363 676.769 811.069C678.457 790.748 715.343 762.369 849.383 811.414C983.423 860.459 844.082 972.516 757.656 1022.41C705.861 979.696 586.923 921.337 525.526 1029.64C448.78 1165.03 397.024 1101.16 322.585 884.302Z" fill="#F09350" fill-opacity="0.18"/>
</g>
<g filter="url(#filter10_f_1858_3569)">
<path d="M105.5 43L288.664 303.25H-77.6644L105.5 43Z" fill="#E0EDFF"/>
</g>
<g filter="url(#filter11_f_1858_3569)">
<path d="M362 254.5L741.5 71.3356V437.664L362 254.5Z" fill="#2981FF" fill-opacity="0.2"/>
</g>
<g filter="url(#filter12_f_1858_3569)">
<ellipse cx="117.5" cy="421.5" rx="191.5" ry="130.5" fill="#F09350" fill-opacity="0.18"/>
</g>
<g filter="url(#filter13_f_1858_3569)">
<ellipse cx="561.5" cy="-6.5" rx="191.5" ry="130.5" fill="#F09350" fill-opacity="0.18"/>
</g>
</g>
</g>
<defs>
<filter id="filter0_f_1858_3569" x="-206" y="609" width="583" height="461" filterUnits="userSpaceOnUse" color-interpolation-filters="sRGB">
<feFlood flood-opacity="0" result="BackgroundImageFix"/>
<feBlend mode="normal" in="SourceGraphic" in2="BackgroundImageFix" result="shape"/>
<feGaussianBlur stdDeviation="50" result="effect1_foregroundBlur_1858_3569"/>
</filter>
<filter id="filter1_f_1858_3569" x="18" y="24" width="583" height="461" filterUnits="userSpaceOnUse" color-interpolation-filters="sRGB">
<feFlood flood-opacity="0" result="BackgroundImageFix"/>
<feBlend mode="normal" in="SourceGraphic" in2="BackgroundImageFix" result="shape"/>
<feGaussianBlur stdDeviation="50" result="effect1_foregroundBlur_1858_3569"/>
</filter>
<filter id="filter2_f_1858_3569" x="262" y="332" width="591" height="671" filterUnits="userSpaceOnUse" color-interpolation-filters="sRGB">
<feFlood flood-opacity="0" result="BackgroundImageFix"/>
<feBlend mode="normal" in="SourceGraphic" in2="BackgroundImageFix" result="shape"/>
<feGaussianBlur stdDeviation="50" result="effect1_foregroundBlur_1858_3569"/>
</filter>
<filter id="filter3_f_1858_3569" x="19" y="-279" width="845.11" height="764" filterUnits="userSpaceOnUse" color-interpolation-filters="sRGB">
<feFlood flood-opacity="0" result="BackgroundImageFix"/>
<feBlend mode="normal" in="SourceGraphic" in2="BackgroundImageFix" result="shape"/>
<feGaussianBlur stdDeviation="50" result="effect1_foregroundBlur_1858_3569"/>
</filter>
<filter id="filter4_f_1858_3569" x="-238.898" y="93.7584" width="795.262" height="687.41" filterUnits="userSpaceOnUse" color-interpolation-filters="sRGB">
<feFlood flood-opacity="0" result="BackgroundImageFix"/>
<feBlend mode="normal" in="SourceGraphic" in2="BackgroundImageFix" result="shape"/>
<feGaussianBlur stdDeviation="50" result="effect1_foregroundBlur_1858_3569"/>
</filter>
<filter id="filter5_f_1858_3569" x="-312.591" y="-288.587" width="797.609" height="662.152" filterUnits="userSpaceOnUse" color-interpolation-filters="sRGB">
<feFlood flood-opacity="0" result="BackgroundImageFix"/>
<feBlend mode="normal" in="SourceGraphic" in2="BackgroundImageFix" result="shape"/>
<feGaussianBlur stdDeviation="50" result="effect1_foregroundBlur_1858_3569"/>
</filter>
<filter id="filter6_f_1858_3569" x="-159.591" y="288.413" width="797.609" height="662.152" filterUnits="userSpaceOnUse" color-interpolation-filters="sRGB">
<feFlood flood-opacity="0" result="BackgroundImageFix"/>
<feBlend mode="normal" in="SourceGraphic" in2="BackgroundImageFix" result="shape"/>
<feGaussianBlur stdDeviation="50" result="effect1_foregroundBlur_1858_3569"/>
</filter>
<filter id="filter7_f_1858_3569" x="137" y="116" width="669.159" height="758.298" filterUnits="userSpaceOnUse" color-interpolation-filters="sRGB">
<feFlood flood-opacity="0" result="BackgroundImageFix"/>
<feBlend mode="normal" in="SourceGraphic" in2="BackgroundImageFix" result="shape"/>
<feGaussianBlur stdDeviation="50" result="effect1_foregroundBlur_1858_3569"/>
</filter>
<filter id="filter8_f_1858_3569" x="5" y="537" width="758.298" height="669.159" filterUnits="userSpaceOnUse" color-interpolation-filters="sRGB">
<feFlood flood-opacity="0" result="BackgroundImageFix"/>
<feBlend mode="normal" in="SourceGraphic" in2="BackgroundImageFix" result="shape"/>
<feGaussianBlur stdDeviation="50" result="effect1_foregroundBlur_1858_3569"/>
</filter>
<filter id="filter9_f_1858_3569" x="207.409" y="538.413" width="797.609" height="662.152" filterUnits="userSpaceOnUse" color-interpolation-filters="sRGB">
<feFlood flood-opacity="0" result="BackgroundImageFix"/>
<feBlend mode="normal" in="SourceGraphic" in2="BackgroundImageFix" result="shape"/>
<feGaussianBlur stdDeviation="50" result="effect1_foregroundBlur_1858_3569"/>
</filter>
<filter id="filter10_f_1858_3569" x="-177.664" y="-57" width="566.329" height="460.25" filterUnits="userSpaceOnUse" color-interpolation-filters="sRGB">
<feFlood flood-opacity="0" result="BackgroundImageFix"/>
<feBlend mode="normal" in="SourceGraphic" in2="BackgroundImageFix" result="shape"/>
<feGaussianBlur stdDeviation="50" result="effect1_foregroundBlur_1858_3569"/>
</filter>
<filter id="filter11_f_1858_3569" x="262" y="-28.6644" width="579.5" height="566.329" filterUnits="userSpaceOnUse" color-interpolation-filters="sRGB">
<feFlood flood-opacity="0" result="BackgroundImageFix"/>
<feBlend mode="normal" in="SourceGraphic" in2="BackgroundImageFix" result="shape"/>
<feGaussianBlur stdDeviation="50" result="effect1_foregroundBlur_1858_3569"/>
</filter>
<filter id="filter12_f_1858_3569" x="-174" y="191" width="583" height="461" filterUnits="userSpaceOnUse" color-interpolation-filters="sRGB">
<feFlood flood-opacity="0" result="BackgroundImageFix"/>
<feBlend mode="normal" in="SourceGraphic" in2="BackgroundImageFix" result="shape"/>
<feGaussianBlur stdDeviation="50" result="effect1_foregroundBlur_1858_3569"/>
</filter>
<filter id="filter13_f_1858_3569" x="270" y="-237" width="583" height="461" filterUnits="userSpaceOnUse" color-interpolation-filters="sRGB">
<feFlood flood-opacity="0" result="BackgroundImageFix"/>
<feBlend mode="normal" in="SourceGraphic" in2="BackgroundImageFix" result="shape"/>
<feGaussianBlur stdDeviation="50" result="effect1_foregroundBlur_1858_3569"/>
</filter>
<clipPath id="clip0_1858_3569">
<rect width="296" height="1024" fill="white"/>
</clipPath>
<clipPath id="clip1_1858_3569">
<rect width="710" height="1145" fill="white" transform="translate(-9 -92)"/>
</clipPath>
</defs>
</svg>
