<svg width="28" height="28" viewBox="0 0 28 28" fill="none" xmlns="http://www.w3.org/2000/svg">
<path fill-rule="evenodd" clip-rule="evenodd" d="M13.9993 13.5111C17.39 13.5111 20.1155 10.7921 20.1155 7.46667C20.1155 4.14121 17.39 1.42222 13.9993 1.42222C10.6085 1.42222 7.88304 4.14121 7.88304 7.46667C7.88304 10.7921 10.6085 13.5111 13.9993 13.5111ZM13.9993 14.9333C18.1627 14.9333 21.5377 11.5904 21.5377 7.46667C21.5377 3.34294 18.1627 0 13.9993 0C9.8359 0 6.46082 3.34294 6.46082 7.46667C6.46082 11.5904 9.8359 14.9333 13.9993 14.9333ZM27.9916 30.5777C27.9972 30.74 28 30.903 28 31.0666V31.9999H26.5778H1.42222H0V31.0666C0 30.903 0.00280726 30.74 0.00837623 30.5777C0.265955 23.0721 6.43165 17.0666 14 17.0666C21.5684 17.0666 27.734 23.0721 27.9916 30.5777ZM1.43155 30.5777C1.68838 23.8578 7.2172 18.4888 14 18.4888C20.7828 18.4888 26.3116 23.8578 26.5685 30.5777H1.43155Z" fill="#2981FF"/>
</svg>
