<svg width="16" height="20" viewBox="0 0 16 20" fill="none" xmlns="http://www.w3.org/2000/svg">
<path d="M13.8333 5.83325C13.6123 5.83325 13.4004 5.92105 13.2441 6.07733C13.0878 6.23361 13 6.44557 13 6.66659V15.9924C12.9761 16.4138 12.7866 16.8087 12.4729 17.0911C12.1592 17.3734 11.7466 17.5204 11.325 17.4999H4.675C4.25341 17.5204 3.84082 17.3734 3.52709 17.0911C3.21336 16.8087 3.02391 16.4138 3 15.9924V6.66659C3 6.44557 2.9122 6.23361 2.75592 6.07733C2.59964 5.92105 2.38768 5.83325 2.16667 5.83325C1.94565 5.83325 1.73369 5.92105 1.57741 6.07733C1.42113 6.23361 1.33333 6.44557 1.33333 6.66659V15.9924C1.35712 16.8559 1.72215 17.6748 2.34848 18.2698C2.97481 18.8647 3.81139 19.1872 4.675 19.1666H11.325C12.1886 19.1872 13.0252 18.8647 13.6515 18.2698C14.2778 17.6748 14.6429 16.8559 14.6667 15.9924V6.66659C14.6667 6.44557 14.5789 6.23361 14.4226 6.07733C14.2663 5.92105 14.0543 5.83325 13.8333 5.83325ZM14.6667 3.33325H11.3333V1.66659C11.3333 1.44557 11.2455 1.23361 11.0893 1.07733C10.933 0.921049 10.721 0.833252 10.5 0.833252H5.5C5.27899 0.833252 5.06702 0.921049 4.91074 1.07733C4.75446 1.23361 4.66667 1.44557 4.66667 1.66659V3.33325H1.33333C1.11232 3.33325 0.900358 3.42105 0.744078 3.57733C0.587797 3.73361 0.5 3.94557 0.5 4.16659C0.5 4.3876 0.587797 4.59956 0.744078 4.75584C0.900358 4.91212 1.11232 4.99992 1.33333 4.99992H14.6667C14.8877 4.99992 15.0996 4.91212 15.2559 4.75584C15.4122 4.59956 15.5 4.3876 15.5 4.16659C15.5 3.94557 15.4122 3.73361 15.2559 3.57733C15.0996 3.42105 14.8877 3.33325 14.6667 3.33325ZM6.33333 3.33325V2.49992H9.66667V3.33325H6.33333Z" fill="#EF5648"/>
<path d="M7.16667 14.1667V8.33333C7.16667 8.11232 7.07887 7.90036 6.92259 7.74408C6.76631 7.5878 6.55435 7.5 6.33333 7.5C6.11232 7.5 5.90036 7.5878 5.74408 7.74408C5.5878 7.90036 5.5 8.11232 5.5 8.33333V14.1667C5.5 14.3877 5.5878 14.5996 5.74408 14.7559C5.90036 14.9122 6.11232 15 6.33333 15C6.55435 15 6.76631 14.9122 6.92259 14.7559C7.07887 14.5996 7.16667 14.3877 7.16667 14.1667ZM10.5 14.1667V8.33333C10.5 8.11232 10.4122 7.90036 10.2559 7.74408C10.0996 7.5878 9.88768 7.5 9.66667 7.5C9.44565 7.5 9.23369 7.5878 9.07741 7.74408C8.92113 7.90036 8.83333 8.11232 8.83333 8.33333V14.1667C8.83333 14.3877 8.92113 14.5996 9.07741 14.7559C9.23369 14.9122 9.44565 15 9.66667 15C9.88768 15 10.0996 14.9122 10.2559 14.7559C10.4122 14.5996 10.5 14.3877 10.5 14.1667Z" fill="#EF5648"/>
</svg>
