<svg width="12" height="14" viewBox="0 0 12 14" fill="none" xmlns="http://www.w3.org/2000/svg">
<path fill-rule="evenodd" clip-rule="evenodd" d="M6.00001 0C6.19891 0 6.38971 0.0819467 6.53034 0.227803L11.7803 5.67226C12.0732 5.97598 12.0732 6.46847 11.7803 6.77219C11.4875 7.07591 11.0126 7.07591 10.7197 6.77219L6.75001 2.6555V13.2222C6.75001 13.6518 6.41424 14 6.00001 14C5.58578 14 5.25001 13.6518 5.25001 13.2222V2.6555L1.28033 6.77219C0.987436 7.07591 0.512566 7.07591 0.219668 6.77219C-0.0732226 6.46847 -0.0732226 5.97598 0.219668 5.67226L5.46968 0.227803C5.61031 0.0819467 5.80111 0 6.00001 0Z" fill="white"/>
</svg>
