<svg width="28" height="33" viewBox="0 0 28 33" fill="none" xmlns="http://www.w3.org/2000/svg">
<path d="M14 17.6163C9.24839 17.6163 5.38116 13.7763 5.38116 9.05814C5.38116 4.34 9.24839 0.5 14 0.5C18.7516 0.5 22.6188 4.34 22.6188 9.05814C22.6188 13.7763 18.7516 17.6163 14 17.6163ZM14 2.73256C10.4925 2.73256 7.62955 5.57535 7.62955 9.05814C7.62955 12.5409 10.4925 15.3837 14 15.3837C17.5075 15.3837 20.3704 12.5409 20.3704 9.05814C20.3704 5.57535 17.5075 2.73256 14 2.73256ZM26.8758 32.5C26.2612 32.5 25.7516 31.994 25.7516 31.3837C25.7516 26.2488 20.4754 22.0814 14 22.0814C7.52462 22.0814 2.24839 26.2488 2.24839 31.3837C2.24839 31.994 1.73876 32.5 1.1242 32.5C0.509636 32.5 0 31.994 0 31.3837C0 25.0284 6.28051 19.8488 14 19.8488C21.7195 19.8488 28 25.0284 28 31.3837C28 31.994 27.4904 32.5 26.8758 32.5Z" fill="#2981FF"/>
</svg>
