<svg width="32" height="32" viewBox="0 0 32 32" fill="none" xmlns="http://www.w3.org/2000/svg">
<g clip-path="url(#clip0_4195_6286)">
<path d="M32 16C32 20.2435 30.3143 24.3131 27.3137 27.3137C24.3131 30.3143 20.2435 32 16 32C11.7565 32 7.68687 30.3143 4.68629 27.3137C1.68571 24.3131 0 20.2435 0 16C0 11.7565 1.68571 7.68687 4.68629 4.68629C7.68687 1.68571 11.7565 0 16 0C20.2435 0 24.3131 1.68571 27.3137 4.68629C30.3143 7.68687 32 11.7565 32 16ZM10.708 9.292C10.5202 9.10423 10.2656 8.99874 10 8.99874C9.73445 8.99874 9.47977 9.10423 9.292 9.292C9.10423 9.47977 8.99874 9.73445 8.99874 10C8.99874 10.2656 9.10423 10.5202 9.292 10.708L14.586 16L9.292 21.292C9.19902 21.385 9.12527 21.4954 9.07495 21.6168C9.02464 21.7383 8.99874 21.8685 8.99874 22C8.99874 22.1315 9.02464 22.2617 9.07495 22.3832C9.12527 22.5046 9.19902 22.615 9.292 22.708C9.47977 22.8958 9.73445 23.0013 10 23.0013C10.1315 23.0013 10.2617 22.9754 10.3832 22.925C10.5046 22.8747 10.615 22.801 10.708 22.708L16 17.414L21.292 22.708C21.385 22.801 21.4954 22.8747 21.6168 22.925C21.7383 22.9754 21.8685 23.0013 22 23.0013C22.1315 23.0013 22.2617 22.9754 22.3832 22.925C22.5046 22.8747 22.615 22.801 22.708 22.708C22.801 22.615 22.8747 22.5046 22.925 22.3832C22.9754 22.2617 23.0013 22.1315 23.0013 22C23.0013 21.8685 22.9754 21.7383 22.925 21.6168C22.8747 21.4954 22.801 21.385 22.708 21.292L17.414 16L22.708 10.708C22.801 10.615 22.8747 10.5046 22.925 10.3832C22.9754 10.2617 23.0013 10.1315 23.0013 10C23.0013 9.86851 22.9754 9.73831 22.925 9.61683C22.8747 9.49535 22.801 9.38498 22.708 9.292C22.615 9.19902 22.5046 9.12527 22.3832 9.07495C22.2617 9.02464 22.1315 8.99874 22 8.99874C21.8685 8.99874 21.7383 9.02464 21.6168 9.07495C21.4954 9.12527 21.385 9.19902 21.292 9.292L16 14.586L10.708 9.292Z" fill="#4D96FF" fill-opacity="1"/>
</g>
<defs>
<clipPath id="clip0_4195_6286">
<rect width="32" height="32" fill="white"/>
</clipPath>
</defs>
</svg>