<svg width="32" height="32" viewBox="0 0 32 32" fill="none" xmlns="http://www.w3.org/2000/svg">
<path fill-rule="evenodd" clip-rule="evenodd" d="M16.319 6.3869L7.97901 11.9469C7.94168 11.97 7.91299 12.0048 7.89736 12.0458C7.88174 12.0868 7.88006 12.1319 7.89257 12.1739C7.90508 12.216 7.9311 12.2528 7.9666 12.2787C8.0021 12.3045 8.04512 12.3179 8.08901 12.3169H24.769C24.8129 12.3179 24.8559 12.3045 24.8914 12.2787C24.9269 12.2528 24.9529 12.216 24.9655 12.1739C24.978 12.1319 24.9763 12.0868 24.9607 12.0458C24.945 12.0048 24.9163 11.97 24.879 11.9469L16.539 6.3869C16.5056 6.36759 16.4676 6.35742 16.429 6.35742C16.3904 6.35742 16.3525 6.36759 16.319 6.3869Z" stroke="#2981FF" stroke-width="1.28571" stroke-linecap="round" stroke-linejoin="round"/>
<path d="M7.42871 25.3169H25.4287" stroke="#2981FF" stroke-width="1.28571" stroke-linecap="round" stroke-linejoin="round"/>
<path d="M8.9292 15.3169V22.3169" stroke="#2981FF" stroke-width="1.28571" stroke-linecap="round" stroke-linejoin="round"/>
<path d="M13.9282 15.3169V22.3169" stroke="#2981FF" stroke-width="1.28571" stroke-linecap="round" stroke-linejoin="round"/>
<path d="M18.9287 15.3169V22.3169" stroke="#2981FF" stroke-width="1.28571" stroke-linecap="round" stroke-linejoin="round"/>
<path d="M23.9292 15.3169V22.3169" stroke="#2981FF" stroke-width="1.28571" stroke-linecap="round" stroke-linejoin="round"/>
</svg>
